<?xml version="1.0" encoding="UTF-8" standalone="no"?>
<!DOCTYPE svg PUBLIC "-//W3C//DTD SVG 1.1//EN"
 "http://www.w3.org/Graphics/SVG/1.1/DTD/svg11.dtd">
<!-- Generated by graphviz version 2.36.0 (20140111.2315)
 -->
<!-- Title: controllers_diagram Pages: 1 -->
<svg width="326pt" height="215pt"
 viewBox="0.00 0.00 326.00 215.00" xmlns="http://www.w3.org/2000/svg" xmlns:xlink="http://www.w3.org/1999/xlink">
<g id="graph0" class="graph" transform="scale(1 1) rotate(0) translate(4 211)">
<title>controllers_diagram</title>
<polygon fill="none" stroke="none" points="-4,4 -4,-211 322,-211 322,4 -4,4"/>
<!-- _diagram_info -->
<g id="node1" class="node"><title>_diagram_info</title>
<text text-anchor="start" x="8" y="-63.6" font-family="Times,serif" font-size="13.00">Controllers diagram</text>
<text text-anchor="start" x="8" y="-49.6" font-family="Times,serif" font-size="13.00">Date: Jul 20 2017 &#45; 03:28</text>
<text text-anchor="start" x="8" y="-35.6" font-family="Times,serif" font-size="13.00">Migration version: 20170720070918</text>
<text text-anchor="start" x="8" y="-21.6" font-family="Times,serif" font-size="13.00">Generated by RailRoady 1.5.3</text>
<text text-anchor="start" x="8" y="-7.6" font-family="Times,serif" font-size="13.00">http://railroady.prestonlee.com</text>
</g>
<!-- ApplicationController -->
<g id="node2" class="node"><title>ApplicationController</title>
<path fill="none" stroke="black" d="M194,-112.5C194,-112.5 306,-112.5 306,-112.5 312,-112.5 318,-118.5 318,-124.5 318,-124.5 318,-194.5 318,-194.5 318,-200.5 312,-206.5 306,-206.5 306,-206.5 194,-206.5 194,-206.5 188,-206.5 182,-200.5 182,-194.5 182,-194.5 182,-124.5 182,-124.5 182,-118.5 188,-112.5 194,-112.5"/>
<text text-anchor="middle" x="250" y="-191.3" font-family="Times,serif" font-size="14.00">ApplicationController</text>
<polyline fill="none" stroke="black" points="182,-183.5 318,-183.5 "/>
<polyline fill="none" stroke="black" points="182,-159.5 318,-159.5 "/>
<polyline fill="none" stroke="black" points="182,-135.5 318,-135.5 "/>
<text text-anchor="start" x="190" y="-120.3" font-family="Times,serif" font-size="14.00">_layout</text>
</g>
<!-- HomeController -->
<g id="node3" class="node"><title>HomeController</title>
<path fill="none" stroke="black" d="M54,-112.5C54,-112.5 136,-112.5 136,-112.5 142,-112.5 148,-118.5 148,-124.5 148,-124.5 148,-193.5 148,-193.5 148,-199.5 142,-205.5 136,-205.5 136,-205.5 54,-205.5 54,-205.5 48,-205.5 42,-199.5 42,-193.5 42,-193.5 42,-124.5 42,-124.5 42,-118.5 48,-112.5 54,-112.5"/>
<text text-anchor="middle" x="95" y="-190.3" font-family="Times,serif" font-size="14.00">HomeController</text>
<polyline fill="none" stroke="black" points="42,-182.5 148,-182.5 "/>
<text text-anchor="start" x="50" y="-167.3" font-family="Times,serif" font-size="14.00">index</text>
<polyline fill="none" stroke="black" points="42,-159.5 148,-159.5 "/>
<polyline fill="none" stroke="black" points="42,-135.5 148,-135.5 "/>
<text text-anchor="start" x="50" y="-120.3" font-family="Times,serif" font-size="14.00">_layout</text>
</g>
</g>
</svg>
