<?xml version="1.0" encoding="UTF-8" standalone="no"?>
<!DOCTYPE svg PUBLIC "-//W3C//DTD SVG 1.1//EN"
 "http://www.w3.org/Graphics/SVG/1.1/DTD/svg11.dtd">
<!-- Generated by graphviz version 2.36.0 (20140111.2315)
 -->
<!-- Title: models_diagram Pages: 1 -->
<svg width="827pt" height="730pt"
 viewBox="0.00 0.00 827.00 730.00" xmlns="http://www.w3.org/2000/svg" xmlns:xlink="http://www.w3.org/1999/xlink">
<g id="graph0" class="graph" transform="scale(1 1) rotate(0) translate(4 726)">
<title>models_diagram</title>
<polygon fill="none" stroke="none" points="-4,4 -4,-726 823,-726 823,4 -4,4"/>
<!-- _diagram_info -->
<g id="node1" class="node"><title>_diagram_info</title>
<text text-anchor="start" x="8" y="-625.6" font-family="Times,serif" font-size="13.00">Models diagram</text>
<text text-anchor="start" x="8" y="-611.6" font-family="Times,serif" font-size="13.00">Date: Jul 20 2017 &#45; 03:28</text>
<text text-anchor="start" x="8" y="-597.6" font-family="Times,serif" font-size="13.00">Migration version: 20170720070918</text>
<text text-anchor="start" x="8" y="-583.6" font-family="Times,serif" font-size="13.00">Generated by RailRoady 1.5.3</text>
<text text-anchor="start" x="8" y="-569.6" font-family="Times,serif" font-size="13.00">http://railroady.prestonlee.com</text>
</g>
<!-- Ability -->
<g id="node2" class="node"><title>Ability</title>
<polygon fill="none" stroke="black" points="232.5,-578 232.5,-624 287.5,-624 287.5,-578 232.5,-578"/>
<text text-anchor="middle" x="260" y="-608.8" font-family="Times,serif" font-size="14.00">Ability</text>
<polyline fill="none" stroke="black" points="232.5,-601 287.5,-601 "/>
<text text-anchor="middle" x="260" y="-585.8" font-family="Times,serif" font-size="14.00"> </text>
</g>
<!-- Relationship -->
<g id="node3" class="node"><title>Relationship</title>
<path fill="none" stroke="black" d="M165.5,-314C165.5,-314 272.5,-314 272.5,-314 278.5,-314 284.5,-320 284.5,-326 284.5,-326 284.5,-408 284.5,-408 284.5,-414 278.5,-420 272.5,-420 272.5,-420 165.5,-420 165.5,-420 159.5,-420 153.5,-414 153.5,-408 153.5,-408 153.5,-326 153.5,-326 153.5,-320 159.5,-314 165.5,-314"/>
<text text-anchor="middle" x="219" y="-404.8" font-family="Times,serif" font-size="14.00">Relationship</text>
<polyline fill="none" stroke="black" points="153.5,-397 284.5,-397 "/>
<text text-anchor="start" x="161.5" y="-381.8" font-family="Times,serif" font-size="14.00">id :INTEGER</text>
<text text-anchor="start" x="161.5" y="-366.8" font-family="Times,serif" font-size="14.00">follower_id :integer</text>
<text text-anchor="start" x="161.5" y="-351.8" font-family="Times,serif" font-size="14.00">followed_id :integer</text>
<text text-anchor="start" x="161.5" y="-336.8" font-family="Times,serif" font-size="14.00">created_at :datetime</text>
<text text-anchor="start" x="161.5" y="-321.8" font-family="Times,serif" font-size="14.00">updated_at :datetime</text>
</g>
<!-- PostTag -->
<g id="node4" class="node"><title>PostTag</title>
<path fill="none" stroke="black" d="M284.5,-1C284.5,-1 391.5,-1 391.5,-1 397.5,-1 403.5,-7 403.5,-13 403.5,-13 403.5,-95 403.5,-95 403.5,-101 397.5,-107 391.5,-107 391.5,-107 284.5,-107 284.5,-107 278.5,-107 272.5,-101 272.5,-95 272.5,-95 272.5,-13 272.5,-13 272.5,-7 278.5,-1 284.5,-1"/>
<text text-anchor="middle" x="338" y="-91.8" font-family="Times,serif" font-size="14.00">PostTag</text>
<polyline fill="none" stroke="black" points="272.5,-84 403.5,-84 "/>
<text text-anchor="start" x="280.5" y="-68.8" font-family="Times,serif" font-size="14.00">id :INTEGER</text>
<text text-anchor="start" x="280.5" y="-53.8" font-family="Times,serif" font-size="14.00">post_id :integer</text>
<text text-anchor="start" x="280.5" y="-38.8" font-family="Times,serif" font-size="14.00">tag_id :integer</text>
<text text-anchor="start" x="280.5" y="-23.8" font-family="Times,serif" font-size="14.00">created_at :datetime</text>
<text text-anchor="start" x="280.5" y="-8.8" font-family="Times,serif" font-size="14.00">updated_at :datetime</text>
</g>
<!-- User -->
<g id="node5" class="node"><title>User</title>
<path fill="none" stroke="black" d="M318,-480.5C318,-480.5 494,-480.5 494,-480.5 500,-480.5 506,-486.5 506,-492.5 506,-492.5 506,-709.5 506,-709.5 506,-715.5 500,-721.5 494,-721.5 494,-721.5 318,-721.5 318,-721.5 312,-721.5 306,-715.5 306,-709.5 306,-709.5 306,-492.5 306,-492.5 306,-486.5 312,-480.5 318,-480.5"/>
<text text-anchor="middle" x="406" y="-706.3" font-family="Times,serif" font-size="14.00">User</text>
<polyline fill="none" stroke="black" points="306,-698.5 506,-698.5 "/>
<text text-anchor="start" x="314" y="-683.3" font-family="Times,serif" font-size="14.00">id :INTEGER</text>
<text text-anchor="start" x="314" y="-668.3" font-family="Times,serif" font-size="14.00">name :varchar</text>
<text text-anchor="start" x="314" y="-653.3" font-family="Times,serif" font-size="14.00">email :varchar</text>
<text text-anchor="start" x="314" y="-638.3" font-family="Times,serif" font-size="14.00">encrypted_password :varchar</text>
<text text-anchor="start" x="314" y="-623.3" font-family="Times,serif" font-size="14.00">reset_password_token :varchar</text>
<text text-anchor="start" x="314" y="-608.3" font-family="Times,serif" font-size="14.00">reset_password_sent_at :datetime</text>
<text text-anchor="start" x="314" y="-593.3" font-family="Times,serif" font-size="14.00">remember_created_at :datetime</text>
<text text-anchor="start" x="314" y="-578.3" font-family="Times,serif" font-size="14.00">confirmation_token :varchar</text>
<text text-anchor="start" x="314" y="-563.3" font-family="Times,serif" font-size="14.00">confirmed_at :datetime</text>
<text text-anchor="start" x="314" y="-548.3" font-family="Times,serif" font-size="14.00">confirmation_sent_at :datetime</text>
<text text-anchor="start" x="314" y="-533.3" font-family="Times,serif" font-size="14.00">unconfirmed_email :varchar</text>
<text text-anchor="start" x="314" y="-518.3" font-family="Times,serif" font-size="14.00">created_at :datetime</text>
<text text-anchor="start" x="314" y="-503.3" font-family="Times,serif" font-size="14.00">updated_at :datetime</text>
<text text-anchor="start" x="314" y="-488.3" font-family="Times,serif" font-size="14.00">is_admin :boolean</text>
</g>
<!-- User&#45;&gt;Relationship -->
<g id="edge1" class="edge"><title>User&#45;&gt;Relationship</title>
<path fill="none" stroke="#1f1557" d="M298.789,-481.621C297.863,-481.07 296.933,-480.53 296,-480 261.664,-460.503 233.932,-492.619 209,-462 201.706,-453.043 199.179,-441.906 199.349,-430.464"/>
<ellipse fill="none" stroke="#1f1557" cx="302.43" cy="-483.909" rx="4.00002" ry="4.00002"/>
<polygon fill="#1f1557" stroke="#1f1557" points="199.358,-430.348 204.626,-420.731 199.749,-425.363 200.14,-420.379 200.14,-420.379 200.14,-420.379 199.749,-425.363 195.654,-420.027 199.358,-430.348 199.358,-430.348"/>
<text text-anchor="middle" x="263.5" y="-450.3" font-family="Times,serif" font-size="14.00">active_relationships</text>
</g>
<!-- User&#45;&gt;Relationship -->
<g id="edge2" class="edge"><title>User&#45;&gt;Relationship</title>
<path fill="none" stroke="#b0d123" d="M339.296,-473.645C332.552,-463.968 325.432,-454.623 318,-446 310.3,-437.065 301.453,-428.434 292.283,-420.376"/>
<ellipse fill="none" stroke="#b0d123" cx="341.649" cy="-477.089" rx="4.00002" ry="4.00002"/>
<polygon fill="#b0d123" stroke="#b0d123" points="292.127,-420.243 287.446,-410.326 288.325,-416.995 284.523,-413.748 284.523,-413.748 284.523,-413.748 288.325,-416.995 281.6,-417.169 292.127,-420.243 292.127,-420.243"/>
<text text-anchor="middle" x="388" y="-450.3" font-family="Times,serif" font-size="14.00">passive_relationships</text>
</g>
<!-- User&#45;&gt;User -->
<g id="edge3" class="edge"><title>User&#45;&gt;User</title>
<path fill="none" stroke="#839ced" d="M515.915,-609.589C521.014,-607.418 524,-604.556 524,-601 524,-597.444 521.014,-594.582 515.915,-592.411"/>
<polygon fill="#839ced" stroke="#839ced" points="515.879,-609.599 505.014,-608.112 511.083,-611.014 506.288,-612.429 506.288,-612.429 506.288,-612.429 511.083,-611.014 507.561,-616.745 515.879,-609.599 515.879,-609.599"/>
<polygon fill="#839ced" stroke="#839ced" points="515.879,-592.401 507.561,-585.255 511.083,-590.986 506.288,-589.571 506.288,-589.571 506.288,-589.571 511.083,-590.986 505.014,-593.888 515.879,-592.401 515.879,-592.401"/>
<text text-anchor="middle" x="550.5" y="-597.3" font-family="Times,serif" font-size="14.00">following</text>
</g>
<!-- User&#45;&gt;User -->
<g id="edge4" class="edge"><title>User&#45;&gt;User</title>
<path fill="none" stroke="#c18947" d="M516.42,-628.233C549.948,-627.012 577,-617.935 577,-601 577,-584.065 549.948,-574.988 516.42,-573.767"/>
<polygon fill="#c18947" stroke="#c18947" points="516.32,-628.234 506.262,-623.865 511.32,-628.299 506.321,-628.365 506.321,-628.365 506.321,-628.365 511.32,-628.299 506.38,-632.864 516.32,-628.234 516.32,-628.234"/>
<polygon fill="#c18947" stroke="#c18947" points="516.32,-573.766 506.38,-569.136 511.32,-573.701 506.321,-573.635 506.321,-573.635 506.321,-573.635 511.32,-573.701 506.262,-578.135 516.32,-573.766 516.32,-573.766"/>
<text text-anchor="middle" x="603" y="-597.3" font-family="Times,serif" font-size="14.00">followers</text>
</g>
<!-- Post -->
<g id="node7" class="node"><title>Post</title>
<path fill="none" stroke="black" d="M371.5,-306.5C371.5,-306.5 478.5,-306.5 478.5,-306.5 484.5,-306.5 490.5,-312.5 490.5,-318.5 490.5,-318.5 490.5,-415.5 490.5,-415.5 490.5,-421.5 484.5,-427.5 478.5,-427.5 478.5,-427.5 371.5,-427.5 371.5,-427.5 365.5,-427.5 359.5,-421.5 359.5,-415.5 359.5,-415.5 359.5,-318.5 359.5,-318.5 359.5,-312.5 365.5,-306.5 371.5,-306.5"/>
<text text-anchor="middle" x="425" y="-412.3" font-family="Times,serif" font-size="14.00">Post</text>
<polyline fill="none" stroke="black" points="359.5,-404.5 490.5,-404.5 "/>
<text text-anchor="start" x="367.5" y="-389.3" font-family="Times,serif" font-size="14.00">id :INTEGER</text>
<text text-anchor="start" x="367.5" y="-374.3" font-family="Times,serif" font-size="14.00">title :varchar</text>
<text text-anchor="start" x="367.5" y="-359.3" font-family="Times,serif" font-size="14.00">content :text</text>
<text text-anchor="start" x="367.5" y="-344.3" font-family="Times,serif" font-size="14.00">user_id :integer</text>
<text text-anchor="start" x="367.5" y="-329.3" font-family="Times,serif" font-size="14.00">created_at :datetime</text>
<text text-anchor="start" x="367.5" y="-314.3" font-family="Times,serif" font-size="14.00">updated_at :datetime</text>
</g>
<!-- User&#45;&gt;Post -->
<g id="edge5" class="edge"><title>User&#45;&gt;Post</title>
<path fill="none" stroke="#6d14c0" d="M458.851,-472.085C459.221,-463.32 458.689,-454.568 457,-446 456.443,-443.173 455.782,-440.319 455.036,-437.46"/>
<ellipse fill="none" stroke="#6d14c0" cx="458.556" cy="-476.145" rx="4" ry="4"/>
<polygon fill="#6d14c0" stroke="#6d14c0" points="455.004,-437.347 456.526,-426.487 453.605,-432.547 452.206,-427.746 452.206,-427.746 452.206,-427.746 453.605,-432.547 447.885,-429.005 455.004,-437.347 455.004,-437.347"/>
</g>
<!-- Comment -->
<g id="node8" class="node"><title>Comment</title>
<path fill="none" stroke="black" d="M498.5,-146.5C498.5,-146.5 605.5,-146.5 605.5,-146.5 611.5,-146.5 617.5,-152.5 617.5,-158.5 617.5,-158.5 617.5,-255.5 617.5,-255.5 617.5,-261.5 611.5,-267.5 605.5,-267.5 605.5,-267.5 498.5,-267.5 498.5,-267.5 492.5,-267.5 486.5,-261.5 486.5,-255.5 486.5,-255.5 486.5,-158.5 486.5,-158.5 486.5,-152.5 492.5,-146.5 498.5,-146.5"/>
<text text-anchor="middle" x="552" y="-252.3" font-family="Times,serif" font-size="14.00">Comment</text>
<polyline fill="none" stroke="black" points="486.5,-244.5 617.5,-244.5 "/>
<text text-anchor="start" x="494.5" y="-229.3" font-family="Times,serif" font-size="14.00">id :INTEGER</text>
<text text-anchor="start" x="494.5" y="-214.3" font-family="Times,serif" font-size="14.00">content :varchar</text>
<text text-anchor="start" x="494.5" y="-199.3" font-family="Times,serif" font-size="14.00">user_id :integer</text>
<text text-anchor="start" x="494.5" y="-184.3" font-family="Times,serif" font-size="14.00">post_id :integer</text>
<text text-anchor="start" x="494.5" y="-169.3" font-family="Times,serif" font-size="14.00">created_at :datetime</text>
<text text-anchor="start" x="494.5" y="-154.3" font-family="Times,serif" font-size="14.00">updated_at :datetime</text>
</g>
<!-- User&#45;&gt;Comment -->
<g id="edge6" class="edge"><title>User&#45;&gt;Comment</title>
<path fill="none" stroke="#9335ea" d="M479.404,-472.897C486.588,-458.017 493.309,-442.846 499,-428 517.72,-379.162 531.303,-321.622 540.03,-277.639"/>
<ellipse fill="none" stroke="#9335ea" cx="477.6" cy="-476.583" rx="4.00002" ry="4.00002"/>
<polygon fill="#9335ea" stroke="#9335ea" points="540.069,-277.434 546.398,-268.479 541.025,-272.526 541.98,-267.619 541.98,-267.619 541.98,-267.619 541.025,-272.526 537.563,-266.759 540.069,-277.434 540.069,-277.434"/>
</g>
<!-- ApplicationRecord -->
<g id="node6" class="node"><title>ApplicationRecord</title>
<ellipse fill="none" stroke="black" cx="742" cy="-601" rx="77.0154" ry="18"/>
<text text-anchor="middle" x="742" y="-597.3" font-family="Times,serif" font-size="14.00">ApplicationRecord</text>
</g>
<!-- Post&#45;&gt;PostTag -->
<g id="edge8" class="edge"><title>Post&#45;&gt;PostTag</title>
<path fill="none" stroke="#c763fc" d="M353.859,-307.29C343.722,-295.414 334.787,-282.177 329,-268 309.47,-220.155 313.921,-161.139 322.003,-117.37"/>
<ellipse fill="none" stroke="#c763fc" cx="356.604" cy="-310.382" rx="4.00002" ry="4.00002"/>
<polygon fill="#c763fc" stroke="#c763fc" points="322.028,-117.246 328.365,-108.296 322.988,-112.339 323.949,-107.432 323.949,-107.432 323.949,-107.432 322.988,-112.339 319.532,-106.567 322.028,-117.246 322.028,-117.246"/>
</g>
<!-- Post&#45;&gt;Comment -->
<g id="edge7" class="edge"><title>Post&#45;&gt;Comment</title>
<path fill="none" stroke="#c47e3c" d="M478.067,-299.98C484.55,-291.914 491.182,-283.663 497.683,-275.576"/>
<ellipse fill="none" stroke="#c47e3c" cx="475.519" cy="-303.149" rx="4.00002" ry="4.00002"/>
<polygon fill="#c47e3c" stroke="#c47e3c" points="497.865,-275.35 507.637,-270.375 500.997,-271.452 504.13,-267.555 504.13,-267.555 504.13,-267.555 500.997,-271.452 500.622,-264.736 497.865,-275.35 497.865,-275.35"/>
</g>
<!-- Tag -->
<g id="node9" class="node"><title>Tag</title>
<path fill="none" stroke="black" d="M349.5,-161.5C349.5,-161.5 456.5,-161.5 456.5,-161.5 462.5,-161.5 468.5,-167.5 468.5,-173.5 468.5,-173.5 468.5,-240.5 468.5,-240.5 468.5,-246.5 462.5,-252.5 456.5,-252.5 456.5,-252.5 349.5,-252.5 349.5,-252.5 343.5,-252.5 337.5,-246.5 337.5,-240.5 337.5,-240.5 337.5,-173.5 337.5,-173.5 337.5,-167.5 343.5,-161.5 349.5,-161.5"/>
<text text-anchor="middle" x="403" y="-237.3" font-family="Times,serif" font-size="14.00">Tag</text>
<polyline fill="none" stroke="black" points="337.5,-229.5 468.5,-229.5 "/>
<text text-anchor="start" x="345.5" y="-214.3" font-family="Times,serif" font-size="14.00">id :INTEGER</text>
<text text-anchor="start" x="345.5" y="-199.3" font-family="Times,serif" font-size="14.00">name :varchar</text>
<text text-anchor="start" x="345.5" y="-184.3" font-family="Times,serif" font-size="14.00">created_at :datetime</text>
<text text-anchor="start" x="345.5" y="-169.3" font-family="Times,serif" font-size="14.00">updated_at :datetime</text>
</g>
<!-- Post&#45;&gt;Tag -->
<g id="edge9" class="edge"><title>Post&#45;&gt;Tag</title>
<path fill="none" stroke="#54a5c6" d="M415.27,-296.118C413.708,-284.905 412.112,-273.443 410.61,-262.653"/>
<polygon fill="#54a5c6" stroke="#54a5c6" points="415.304,-296.363 412.226,-306.888 415.993,-301.315 416.683,-306.267 416.683,-306.267 416.683,-306.267 415.993,-301.315 421.14,-305.646 415.304,-296.363 415.304,-296.363"/>
<polygon fill="#54a5c6" stroke="#54a5c6" points="410.582,-262.449 413.659,-251.924 409.892,-257.496 409.202,-252.544 409.202,-252.544 409.202,-252.544 409.892,-257.496 404.745,-253.165 410.582,-262.449 410.582,-262.449"/>
</g>
<!-- Tag&#45;&gt;PostTag -->
<g id="edge10" class="edge"><title>Tag&#45;&gt;PostTag</title>
<path fill="none" stroke="#e70052" d="M380.36,-153.405C375.221,-141.467 369.719,-128.686 364.438,-116.418"/>
<ellipse fill="none" stroke="#e70052" cx="382.092" cy="-157.43" rx="4.00001" ry="4.00001"/>
<polygon fill="#e70052" stroke="#e70052" points="364.407,-116.345 364.586,-105.38 362.43,-111.752 360.453,-107.16 360.453,-107.16 360.453,-107.16 362.43,-111.752 356.32,-108.939 364.407,-116.345 364.407,-116.345"/>
</g>
</g>
</svg>
