<?xml version="1.0" encoding="UTF-8" standalone="no"?>
<!DOCTYPE svg PUBLIC "-//W3C//DTD SVG 1.1//EN"
 "http://www.w3.org/Graphics/SVG/1.1/DTD/svg11.dtd">
<!-- Generated by graphviz version 2.36.0 (20140111.2315)
 -->
<!-- Title: models_diagram Pages: 1 -->
<svg width="682pt" height="322pt"
 viewBox="0.00 0.00 682.00 322.00" xmlns="http://www.w3.org/2000/svg" xmlns:xlink="http://www.w3.org/1999/xlink">
<g id="graph0" class="graph" transform="scale(1 1) rotate(0) translate(4 318)">
<title>models_diagram</title>
<polygon fill="none" stroke="none" points="-4,4 -4,-318 678,-318 678,4 -4,4"/>
<!-- _diagram_info -->
<g id="node1" class="node"><title>_diagram_info</title>
<text text-anchor="start" x="8" y="-299.6" font-family="Times,serif" font-size="13.00">Models diagram</text>
<text text-anchor="start" x="8" y="-285.6" font-family="Times,serif" font-size="13.00">Date: Jul 20 2017 &#45; 03:28</text>
<text text-anchor="start" x="8" y="-271.6" font-family="Times,serif" font-size="13.00">Migration version: 20170720070918</text>
<text text-anchor="start" x="8" y="-257.6" font-family="Times,serif" font-size="13.00">Generated by RailRoady 1.5.3</text>
<text text-anchor="start" x="8" y="-243.6" font-family="Times,serif" font-size="13.00">http://railroady.prestonlee.com</text>
</g>
<!-- Ability -->
<g id="node2" class="node"><title>Ability</title>
<polygon fill="none" stroke="black" points="287.25,-293 232.75,-293 232.75,-257 287.25,-257 287.25,-293"/>
<text text-anchor="middle" x="260" y="-271.3" font-family="Times,serif" font-size="14.00">Ability</text>
</g>
<!-- Relationship -->
<g id="node3" class="node"><title>Relationship</title>
<ellipse fill="none" stroke="black" cx="192" cy="-166" rx="55.3682" ry="18"/>
<text text-anchor="middle" x="192" y="-162.3" font-family="Times,serif" font-size="14.00">Relationship</text>
</g>
<!-- PostTag -->
<g id="node4" class="node"><title>PostTag</title>
<ellipse fill="none" stroke="black" cx="326" cy="-18" rx="39.4691" ry="18"/>
<text text-anchor="middle" x="326" y="-14.3" font-family="Times,serif" font-size="14.00">PostTag</text>
</g>
<!-- User -->
<g id="node5" class="node"><title>User</title>
<ellipse fill="none" stroke="black" cx="333" cy="-275" rx="26.949" ry="18"/>
<text text-anchor="middle" x="333" y="-271.3" font-family="Times,serif" font-size="14.00">User</text>
</g>
<!-- User&#45;&gt;Relationship -->
<g id="edge1" class="edge"><title>User&#45;&gt;Relationship</title>
<path fill="none" stroke="#53fb4e" d="M316.734,-252.281C310.902,-246.007 303.815,-239.827 296,-236 263.866,-220.264 159.844,-244.677 136,-218 125.818,-206.608 136.415,-195.05 151.027,-185.825"/>
<ellipse fill="none" stroke="#53fb4e" cx="319.507" cy="-255.48" rx="4.00002" ry="4.00002"/>
<polygon fill="#53fb4e" stroke="#53fb4e" points="151.3,-185.668 162.212,-184.582 155.634,-183.175 159.968,-180.681 159.968,-180.681 159.968,-180.681 155.634,-183.175 157.724,-176.781 151.3,-185.668 151.3,-185.668"/>
<text text-anchor="middle" x="190.5" y="-206.3" font-family="Times,serif" font-size="14.00">active_relationships</text>
</g>
<!-- User&#45;&gt;Relationship -->
<g id="edge2" class="edge"><title>User&#45;&gt;Relationship</title>
<path fill="none" stroke="#ebdac0" d="M314.433,-252.79C308.821,-246.991 302.432,-240.947 296,-236 283.065,-226.053 277.411,-227.296 264,-218 254.927,-211.711 253.843,-208.609 245,-202 238.603,-197.22 231.584,-192.343 224.806,-187.807"/>
<ellipse fill="none" stroke="#ebdac0" cx="317.448" cy="-256.006" rx="4.00002" ry="4.00002"/>
<polygon fill="#ebdac0" stroke="#ebdac0" points="224.765,-187.78 218.892,-178.519 220.591,-185.028 216.416,-182.276 216.416,-182.276 216.416,-182.276 220.591,-185.028 213.939,-186.034 224.765,-187.78 224.765,-187.78"/>
<text text-anchor="middle" x="322" y="-206.3" font-family="Times,serif" font-size="14.00">passive_relationships</text>
</g>
<!-- User&#45;&gt;User -->
<g id="edge3" class="edge"><title>User&#45;&gt;User</title>
<path fill="none" stroke="#3c2410" d="M369.12,-280.426C374.422,-279.571 378,-277.763 378,-275 378,-272.237 374.422,-270.429 369.12,-269.574"/>
<polygon fill="#3c2410" stroke="#3c2410" points="368.882,-280.438 358.66,-276.47 363.889,-280.701 358.896,-280.963 358.896,-280.963 358.896,-280.963 363.889,-280.701 359.132,-285.457 368.882,-280.438 368.882,-280.438"/>
<polygon fill="#3c2410" stroke="#3c2410" points="368.882,-269.562 359.132,-264.543 363.889,-269.299 358.896,-269.037 358.896,-269.037 358.896,-269.037 363.889,-269.299 358.66,-273.53 368.882,-269.562 368.882,-269.562"/>
<text text-anchor="middle" x="404.5" y="-271.3" font-family="Times,serif" font-size="14.00">following</text>
</g>
<!-- User&#45;&gt;User -->
<g id="edge4" class="edge"><title>User&#45;&gt;User</title>
<path fill="none" stroke="#54a40f" d="M366.733,-285.54C395.98,-289.304 431,-285.79 431,-275 431,-264.21 395.98,-260.696 366.733,-264.46"/>
<polygon fill="#54a40f" stroke="#54a40f" points="366.566,-285.513 357.419,-279.464 361.631,-284.709 356.696,-283.906 356.696,-283.906 356.696,-283.906 361.631,-284.709 355.973,-288.347 366.566,-285.513 366.566,-285.513"/>
<polygon fill="#54a40f" stroke="#54a40f" points="366.566,-264.487 355.973,-261.653 361.631,-265.291 356.696,-266.094 356.696,-266.094 356.696,-266.094 361.631,-265.291 357.419,-270.536 366.566,-264.487 366.566,-264.487"/>
<text text-anchor="middle" x="457" y="-271.3" font-family="Times,serif" font-size="14.00">followers</text>
</g>
<!-- Post -->
<g id="node7" class="node"><title>Post</title>
<ellipse fill="none" stroke="black" cx="374" cy="-166" rx="27" ry="18"/>
<text text-anchor="middle" x="374" y="-162.3" font-family="Times,serif" font-size="14.00">Post</text>
</g>
<!-- User&#45;&gt;Post -->
<g id="edge5" class="edge"><title>User&#45;&gt;Post</title>
<path fill="none" stroke="#da3fd9" d="M356.411,-255.516C366.99,-245.654 378.365,-232.557 384,-218 387.023,-210.19 386.54,-201.34 384.695,-193.23"/>
<ellipse fill="none" stroke="#da3fd9" cx="353.311" cy="-258.275" rx="4.00002" ry="4.00002"/>
<polygon fill="#da3fd9" stroke="#da3fd9" points="384.648,-193.071 386.105,-182.202 383.22,-188.279 381.792,-183.487 381.792,-183.487 381.792,-183.487 383.22,-188.279 377.479,-184.773 384.648,-193.071 384.648,-193.071"/>
</g>
<!-- Comment -->
<g id="node8" class="node"><title>Comment</title>
<ellipse fill="none" stroke="black" cx="452" cy="-92" rx="46.2191" ry="18"/>
<text text-anchor="middle" x="452" y="-88.3" font-family="Times,serif" font-size="14.00">Comment</text>
</g>
<!-- User&#45;&gt;Comment -->
<g id="edge6" class="edge"><title>User&#45;&gt;Comment</title>
<path fill="none" stroke="#5a5cb0" d="M358.36,-256.947C371.829,-246.878 387.855,-233.154 399,-218 421.315,-187.657 436.421,-146.493 444.624,-119.838"/>
<ellipse fill="none" stroke="#5a5cb0" cx="354.824" cy="-259.516" rx="4.00002" ry="4.00002"/>
<polygon fill="#5a5cb0" stroke="#5a5cb0" points="444.684,-119.637 451.841,-111.329 446.105,-114.844 447.527,-110.05 447.527,-110.05 447.527,-110.05 446.105,-114.844 443.213,-108.771 444.684,-119.637 444.684,-119.637"/>
</g>
<!-- ApplicationRecord -->
<g id="node6" class="node"><title>ApplicationRecord</title>
<ellipse fill="none" stroke="black" cx="597" cy="-275" rx="77.0154" ry="18"/>
<text text-anchor="middle" x="597" y="-271.3" font-family="Times,serif" font-size="14.00">ApplicationRecord</text>
</g>
<!-- Post&#45;&gt;PostTag -->
<g id="edge8" class="edge"><title>Post&#45;&gt;PostTag</title>
<path fill="none" stroke="#77f32b" d="M350.786,-146.067C340.824,-136.442 330.277,-123.856 325,-110 317.244,-89.6346 318.136,-64.7979 320.609,-46.2199"/>
<ellipse fill="none" stroke="#77f32b" cx="353.918" cy="-148.952" rx="4.00002" ry="4.00002"/>
<polygon fill="#77f32b" stroke="#77f32b" points="320.648,-45.9657 326.64,-36.7813 321.421,-41.0258 322.194,-36.0859 322.194,-36.0859 322.194,-36.0859 321.421,-41.0258 317.748,-35.3904 320.648,-45.9657 320.648,-45.9657"/>
</g>
<!-- Post&#45;&gt;Comment -->
<g id="edge7" class="edge"><title>Post&#45;&gt;Comment</title>
<path fill="none" stroke="#ab3a81" d="M395.561,-145.098C405.395,-136.02 417.092,-125.223 427.28,-115.819"/>
<ellipse fill="none" stroke="#ab3a81" cx="392.35" cy="-148.062" rx="4.00002" ry="4.00002"/>
<polygon fill="#ab3a81" stroke="#ab3a81" points="427.373,-115.733 437.773,-112.256 431.047,-112.341 434.721,-108.95 434.721,-108.95 434.721,-108.95 431.047,-112.341 431.669,-105.643 427.373,-115.733 427.373,-115.733"/>
</g>
<!-- Tag -->
<g id="node9" class="node"><title>Tag</title>
<ellipse fill="none" stroke="black" cx="361" cy="-92" rx="27" ry="18"/>
<text text-anchor="middle" x="361" y="-88.3" font-family="Times,serif" font-size="14.00">Tag</text>
</g>
<!-- Post&#45;&gt;Tag -->
<g id="edge9" class="edge"><title>Post&#45;&gt;Tag</title>
<path fill="none" stroke="#d52647" d="M369.1,-137.864C368.043,-132.005 366.924,-125.812 365.868,-119.96"/>
<polygon fill="#d52647" stroke="#d52647" points="369.142,-138.096 366.491,-148.737 370.031,-143.017 370.919,-147.937 370.919,-147.937 370.919,-147.937 370.031,-143.017 375.348,-147.137 369.142,-138.096 369.142,-138.096"/>
<polygon fill="#d52647" stroke="#d52647" points="365.836,-119.781 368.487,-109.141 364.947,-114.861 364.059,-109.941 364.059,-109.941 364.059,-109.941 364.947,-114.861 359.63,-110.74 365.836,-119.781 365.836,-119.781"/>
</g>
<!-- Tag&#45;&gt;PostTag -->
<g id="edge10" class="edge"><title>Tag&#45;&gt;PostTag</title>
<path fill="none" stroke="#fb4537" d="M349.558,-67.4621C346.1,-60.3479 342.281,-52.4929 338.744,-45.2153"/>
<ellipse fill="none" stroke="#fb4537" cx="351.309" cy="-71.0646" rx="4.00002" ry="4.00002"/>
<polygon fill="#fb4537" stroke="#fb4537" points="338.525,-44.7666 338.201,-33.8055 336.339,-40.2698 334.153,-35.7729 334.153,-35.7729 334.153,-35.7729 336.339,-40.2698 330.106,-37.7403 338.525,-44.7666 338.525,-44.7666"/>
</g>
</g>
</svg>
